<?xml version="1.0" encoding="UTF-8" standalone="no"?><svg xmlns="http://www.w3.org/2000/svg" xmlns:xlink="http://www.w3.org/1999/xlink" contentScriptType="application/ecmascript" contentStyleType="text/css" height="297px" preserveAspectRatio="none" style="width:319px;height:297px;background:#FFFFFF;" version="1.1" viewBox="0 0 319 297" width="319px" zoomAndPan="magnify"><defs><filter height="300%" id="f1jaeic6fj8ic" width="300%" x="-1" y="-1"><feGaussianBlur result="blurOut" stdDeviation="2.0"/><feColorMatrix in="blurOut" result="blurOut2" type="matrix" values="0 0 0 0 0 0 0 0 0 0 0 0 0 0 0 0 0 0 .4 0"/><feOffset dx="4.0" dy="4.0" in="blurOut2" result="blurOut3"/><feBlend in="SourceGraphic" in2="blurOut3" mode="normal"/></filter></defs><g><ellipse cx="77" cy="50.0957" fill="#000000" filter="url(#f1jaeic6fj8ic)" rx="10" ry="10" style="stroke:none;stroke-width:1.0;"/><rect fill="#FEFECE" filter="url(#f1jaeic6fj8ic)" height="35.0938" rx="12.5" ry="12.5" style="stroke:#A80036;stroke-width:1.5;" width="82" x="36" y="80.0957"/><text fill="#000000" font-family="sans-serif" font-size="12" lengthAdjust="spacing" textLength="62" x="46" y="102.5527">Create Mail</text><line style="stroke:#000000;stroke-width:2.0;" x1="15" x2="15" y1="12.4551" y2="280.4707"/><rect fill="#FAEBD7" height="268.0156" style="stroke:#FAEBD7;stroke-width:1.0;" width="43" x="143" y="12.4551"/><rect fill="#FEFECE" filter="url(#f1jaeic6fj8ic)" height="35.0938" rx="12.5" ry="12.5" style="stroke:#A80036;stroke-width:1.5;" width="27" x="149" y="135.1895"/><text fill="#000000" font-family="sans-serif" font-size="12" lengthAdjust="spacing" textLength="7" x="159" y="157.6465">?</text><line style="stroke:#000000;stroke-width:2.0;" x1="143" x2="143" y1="12.4551" y2="280.4707"/><rect fill="#FEFECE" filter="url(#f1jaeic6fj8ic)" height="35.0938" rx="12.5" ry="12.5" style="stroke:#A80036;stroke-width:1.5;" width="98" x="192" y="190.2832"/><text fill="#000000" font-family="sans-serif" font-size="12" lengthAdjust="spacing" textLength="78" x="202" y="212.7402">Receive string</text><rect fill="#FEFECE" filter="url(#f1jaeic6fj8ic)" height="35.0938" rx="12.5" ry="12.5" style="stroke:#A80036;stroke-width:1.5;" width="94" x="194" y="245.377"/><text fill="#000000" font-family="sans-serif" font-size="12" lengthAdjust="spacing" textLength="74" x="204" y="267.834">Show content</text><line style="stroke:#000000;stroke-width:2.0;" x1="186" x2="186" y1="12.4551" y2="280.4707"/><line style="stroke:#000000;stroke-width:2.0;" x1="300" x2="300" y1="12.4551" y2="280.4707"/><line style="stroke:#A80036;stroke-width:1.5;" x1="77" x2="77" y1="60.0957" y2="80.0957"/><polygon fill="#A80036" points="73,70.0957,77,80.0957,81,70.0957,77,74.0957" style="stroke:#A80036;stroke-width:1.0;"/><line style="stroke:#A80036;stroke-width:1.5;" x1="241" x2="241" y1="225.377" y2="245.377"/><polygon fill="#A80036" points="237,235.377,241,245.377,245,235.377,241,239.377" style="stroke:#A80036;stroke-width:1.0;"/><line style="stroke:#A80036;stroke-width:1.5;" x1="77" x2="77" y1="115.1895" y2="120.1895"/><line style="stroke:#A80036;stroke-width:1.5;" x1="77" x2="162.5" y1="120.1895" y2="120.1895"/><line style="stroke:#A80036;stroke-width:1.5;" x1="162.5" x2="162.5" y1="120.1895" y2="135.1895"/><polygon fill="#A80036" points="158.5,125.1895,162.5,135.1895,166.5,125.1895,162.5,129.1895" style="stroke:#A80036;stroke-width:1.0;"/><line style="stroke:#A80036;stroke-width:1.5;" x1="162.5" x2="162.5" y1="170.2832" y2="175.2832"/><line style="stroke:#A80036;stroke-width:1.5;" x1="162.5" x2="241" y1="175.2832" y2="175.2832"/><line style="stroke:#A80036;stroke-width:1.5;" x1="241" x2="241" y1="175.2832" y2="190.2832"/><polygon fill="#A80036" points="237,180.2832,241,190.2832,245,180.2832,241,184.2832" style="stroke:#A80036;stroke-width:1.0;"/><text fill="#000000" font-family="sans-serif" font-size="18" lengthAdjust="spacing" textLength="118" x="20" y="31.1406">News-Provider</text><text fill="#000000" font-family="sans-serif" font-size="18" lengthAdjust="spacing" textLength="10" x="159.5" y="31.1406">?</text><text fill="#000000" font-family="sans-serif" font-size="18" lengthAdjust="spacing" textLength="46" x="220" y="31.1406">Client</text><!--MD5=[5f5a677d760058df22bfa36fbbb02115]
@startuml Starting
|News-Provider|
start
:Create Mail;
|#AntiqueWhite|?|
:?;
|Client|
:Receive string;
:Show content;
@enduml

PlantUML version 1.2021.14(Fri Nov 12 17:46:50 CET 2021)
(GPL source distribution)
Java Runtime: Java(TM) SE Runtime Environment
JVM: Java HotSpot(TM) 64-Bit Server VM
Default Encoding: Cp1252
Language: de
Country: AT
--></g></svg>