<?xml version="1.0" encoding="UTF-8" standalone="no"?><svg xmlns="http://www.w3.org/2000/svg" xmlns:xlink="http://www.w3.org/1999/xlink" contentScriptType="application/ecmascript" contentStyleType="text/css" height="516px" preserveAspectRatio="none" style="width:476px;height:516px;background:#FFFFFF;" version="1.1" viewBox="0 0 476 516" width="476px" zoomAndPan="magnify"><defs><filter height="300%" id="fvw8zeq4azzdz" width="300%" x="-1" y="-1"><feGaussianBlur result="blurOut" stdDeviation="2.0"/><feColorMatrix in="blurOut" result="blurOut2" type="matrix" values="0 0 0 0 0 0 0 0 0 0 0 0 0 0 0 0 0 0 .4 0"/><feOffset dx="4.0" dy="4.0" in="blurOut2" result="blurOut3"/><feBlend in="SourceGraphic" in2="blurOut3" mode="normal"/></filter></defs><g><!--MD5=[ed6624c6556d5e7b1bd23032162d20b7]
class Client--><rect codeLine="1" fill="#FEFECE" filter="url(#fvw8zeq4azzdz)" height="61.8359" id="Client" style="stroke:#A80036;stroke-width:1.5;" width="168" x="7" y="287"/><ellipse cx="70.75" cy="303" fill="#ADD1B2" rx="11" ry="11" style="stroke:#A80036;stroke-width:1.0;"/><path d="M73.5156,298.875 Q73.6719,298.6563 73.8594,298.5469 Q74.0469,298.4375 74.2656,298.4375 Q74.6406,298.4375 74.875,298.6953 Q75.1094,298.9531 75.1094,299.5625 L75.1094,301.0156 Q75.1094,301.625 74.875,301.8906 Q74.6406,302.1563 74.2656,302.1563 Q73.9219,302.1563 73.7188,301.9531 Q73.5156,301.7656 73.4063,301.25 Q73.3594,300.8906 73.1719,300.7031 Q72.8438,300.3281 72.2344,300.1094 Q71.625,299.8906 71,299.8906 Q70.2344,299.8906 69.6016,300.2188 Q68.9688,300.5469 68.4766,301.2969 Q67.9844,302.0469 67.9844,303.0781 L67.9844,304.1719 Q67.9844,305.4063 68.875,306.2266 Q69.7656,307.0469 71.3594,307.0469 Q72.2969,307.0469 72.9531,306.7969 Q73.3438,306.6406 73.7656,306.2031 Q74.0313,305.9375 74.1797,305.8594 Q74.3281,305.7813 74.5313,305.7813 Q74.8594,305.7813 75.1172,306.0391 Q75.375,306.2969 75.375,306.6406 Q75.375,306.9844 75.0313,307.3906 Q74.5313,307.9688 73.7344,308.2969 Q72.6563,308.75 71.3594,308.75 Q69.8438,308.75 68.6406,308.125 Q67.6563,307.625 66.9688,306.5547 Q66.2813,305.4844 66.2813,304.2031 L66.2813,303.0469 Q66.2813,301.7188 66.8984,300.5703 Q67.5156,299.4219 68.6094,298.8047 Q69.7031,298.1875 70.9375,298.1875 Q71.6719,298.1875 72.3203,298.3516 Q72.9688,298.5156 73.5156,298.875 Z " fill="#000000"/><text fill="#000000" font-family="sans-serif" font-size="12" lengthAdjust="spacing" textLength="32" x="91.25" y="307.9102">Client</text><line style="stroke:#A80036;stroke-width:1.5;" x1="8" x2="174" y1="319" y2="319"/><line style="stroke:#A80036;stroke-width:1.5;" x1="8" x2="174" y1="327" y2="327"/><ellipse cx="18" cy="338" fill="#84BE84" rx="3" ry="3" style="stroke:#038048;stroke-width:1.0;"/><text fill="#000000" font-family="sans-serif" font-size="11" lengthAdjust="spacing" textLength="142" x="27" y="342.4189">showContent(content: string)</text><!--MD5=[5d722cbb235da0dbc7be1a11ebb02c02]
class NewsProvider--><rect codeLine="5" fill="#FEFECE" filter="url(#fvw8zeq4azzdz)" height="48" id="NewsProvider" style="stroke:#A80036;stroke-width:1.5;" width="109" x="82.5" y="7"/><ellipse cx="97.5" cy="23" fill="#ADD1B2" rx="11" ry="11" style="stroke:#A80036;stroke-width:1.0;"/><path d="M100.2656,18.875 Q100.4219,18.6563 100.6094,18.5469 Q100.7969,18.4375 101.0156,18.4375 Q101.3906,18.4375 101.625,18.6953 Q101.8594,18.9531 101.8594,19.5625 L101.8594,21.0156 Q101.8594,21.625 101.625,21.8906 Q101.3906,22.1563 101.0156,22.1563 Q100.6719,22.1563 100.4688,21.9531 Q100.2656,21.7656 100.1563,21.25 Q100.1094,20.8906 99.9219,20.7031 Q99.5938,20.3281 98.9844,20.1094 Q98.375,19.8906 97.75,19.8906 Q96.9844,19.8906 96.3516,20.2188 Q95.7188,20.5469 95.2266,21.2969 Q94.7344,22.0469 94.7344,23.0781 L94.7344,24.1719 Q94.7344,25.4063 95.625,26.2266 Q96.5156,27.0469 98.1094,27.0469 Q99.0469,27.0469 99.7031,26.7969 Q100.0938,26.6406 100.5156,26.2031 Q100.7813,25.9375 100.9297,25.8594 Q101.0781,25.7813 101.2813,25.7813 Q101.6094,25.7813 101.8672,26.0391 Q102.125,26.2969 102.125,26.6406 Q102.125,26.9844 101.7813,27.3906 Q101.2813,27.9688 100.4844,28.2969 Q99.4063,28.75 98.1094,28.75 Q96.5938,28.75 95.3906,28.125 Q94.4063,27.625 93.7188,26.5547 Q93.0313,25.4844 93.0313,24.2031 L93.0313,23.0469 Q93.0313,21.7188 93.6484,20.5703 Q94.2656,19.4219 95.3594,18.8047 Q96.4531,18.1875 97.6875,18.1875 Q98.4219,18.1875 99.0703,18.3516 Q99.7188,18.5156 100.2656,18.875 Z " fill="#000000"/><text fill="#000000" font-family="sans-serif" font-size="12" lengthAdjust="spacing" textLength="77" x="111.5" y="27.9102">NewsProvider</text><line style="stroke:#A80036;stroke-width:1.5;" x1="83.5" x2="190.5" y1="39" y2="39"/><line style="stroke:#A80036;stroke-width:1.5;" x1="83.5" x2="190.5" y1="47" y2="47"/><!--MD5=[93b867cf5e7a1e913dd5047074c12207]
class Mail--><rect codeLine="7" fill="#FEFECE" filter="url(#fvw8zeq4azzdz)" height="75.6719" id="Mail" style="stroke:#A80036;stroke-width:1.5;" width="95" x="89.5" y="133"/><ellipse cx="122.95" cy="149" fill="#ADD1B2" rx="11" ry="11" style="stroke:#A80036;stroke-width:1.0;"/><path d="M125.7156,144.875 Q125.8719,144.6563 126.0594,144.5469 Q126.2469,144.4375 126.4656,144.4375 Q126.8406,144.4375 127.075,144.6953 Q127.3094,144.9531 127.3094,145.5625 L127.3094,147.0156 Q127.3094,147.625 127.075,147.8906 Q126.8406,148.1563 126.4656,148.1563 Q126.1219,148.1563 125.9188,147.9531 Q125.7156,147.7656 125.6063,147.25 Q125.5594,146.8906 125.3719,146.7031 Q125.0438,146.3281 124.4344,146.1094 Q123.825,145.8906 123.2,145.8906 Q122.4344,145.8906 121.8016,146.2188 Q121.1688,146.5469 120.6766,147.2969 Q120.1844,148.0469 120.1844,149.0781 L120.1844,150.1719 Q120.1844,151.4063 121.075,152.2266 Q121.9656,153.0469 123.5594,153.0469 Q124.4969,153.0469 125.1531,152.7969 Q125.5438,152.6406 125.9656,152.2031 Q126.2313,151.9375 126.3797,151.8594 Q126.5281,151.7813 126.7313,151.7813 Q127.0594,151.7813 127.3172,152.0391 Q127.575,152.2969 127.575,152.6406 Q127.575,152.9844 127.2313,153.3906 Q126.7313,153.9688 125.9344,154.2969 Q124.8563,154.75 123.5594,154.75 Q122.0438,154.75 120.8406,154.125 Q119.8563,153.625 119.1688,152.5547 Q118.4813,151.4844 118.4813,150.2031 L118.4813,149.0469 Q118.4813,147.7188 119.0984,146.5703 Q119.7156,145.4219 120.8094,144.8047 Q121.9031,144.1875 123.1375,144.1875 Q123.8719,144.1875 124.5203,144.3516 Q125.1688,144.5156 125.7156,144.875 Z " fill="#000000"/><text fill="#000000" font-family="sans-serif" font-size="12" lengthAdjust="spacing" textLength="22" x="141.05" y="153.9102">Mail</text><line style="stroke:#A80036;stroke-width:1.5;" x1="90.5" x2="183.5" y1="165" y2="165"/><ellipse cx="100.5" cy="176" rx="3" ry="3" style="stroke:#038048;stroke-width:1.0;fill:none;"/><text fill="#000000" font-family="sans-serif" font-size="11" lengthAdjust="spacing" textLength="69" x="109.5" y="180.4189">content: string</text><ellipse cx="100.5" cy="189.8359" rx="3" ry="3" style="stroke:#038048;stroke-width:1.0;fill:none;"/><text fill="#000000" font-family="sans-serif" font-size="11" lengthAdjust="spacing" textLength="38" x="109.5" y="194.2549">ad: bool</text><line style="stroke:#A80036;stroke-width:1.5;" x1="90.5" x2="183.5" y1="200.6719" y2="200.6719"/><!--MD5=[41f5b97920949c93f11fe0d940b2487b]
class Summary--><rect codeLine="12" fill="#FEFECE" filter="url(#fvw8zeq4azzdz)" height="75.6719" id="Summary" style="stroke:#A80036;stroke-width:1.5;" width="95" x="288.5" y="427"/><ellipse cx="308" cy="443" fill="#ADD1B2" rx="11" ry="11" style="stroke:#A80036;stroke-width:1.0;"/><path d="M310.7656,438.875 Q310.9219,438.6563 311.1094,438.5469 Q311.2969,438.4375 311.5156,438.4375 Q311.8906,438.4375 312.125,438.6953 Q312.3594,438.9531 312.3594,439.5625 L312.3594,441.0156 Q312.3594,441.625 312.125,441.8906 Q311.8906,442.1563 311.5156,442.1563 Q311.1719,442.1563 310.9688,441.9531 Q310.7656,441.7656 310.6563,441.25 Q310.6094,440.8906 310.4219,440.7031 Q310.0938,440.3281 309.4844,440.1094 Q308.875,439.8906 308.25,439.8906 Q307.4844,439.8906 306.8516,440.2188 Q306.2188,440.5469 305.7266,441.2969 Q305.2344,442.0469 305.2344,443.0781 L305.2344,444.1719 Q305.2344,445.4063 306.125,446.2266 Q307.0156,447.0469 308.6094,447.0469 Q309.5469,447.0469 310.2031,446.7969 Q310.5938,446.6406 311.0156,446.2031 Q311.2813,445.9375 311.4297,445.8594 Q311.5781,445.7813 311.7813,445.7813 Q312.1094,445.7813 312.3672,446.0391 Q312.625,446.2969 312.625,446.6406 Q312.625,446.9844 312.2813,447.3906 Q311.7813,447.9688 310.9844,448.2969 Q309.9063,448.75 308.6094,448.75 Q307.0938,448.75 305.8906,448.125 Q304.9063,447.625 304.2188,446.5547 Q303.5313,445.4844 303.5313,444.2031 L303.5313,443.0469 Q303.5313,441.7188 304.1484,440.5703 Q304.7656,439.4219 305.8594,438.8047 Q306.9531,438.1875 308.1875,438.1875 Q308.9219,438.1875 309.5703,438.3516 Q310.2188,438.5156 310.7656,438.875 Z " fill="#000000"/><text fill="#000000" font-family="sans-serif" font-size="12" lengthAdjust="spacing" textLength="53" x="323" y="447.9102">Summary</text><line style="stroke:#A80036;stroke-width:1.5;" x1="289.5" x2="382.5" y1="459" y2="459"/><ellipse cx="299.5" cy="470" rx="3" ry="3" style="stroke:#038048;stroke-width:1.0;fill:none;"/><text fill="#000000" font-family="sans-serif" font-size="11" lengthAdjust="spacing" textLength="69" x="308.5" y="474.4189">content: string</text><ellipse cx="299.5" cy="483.8359" rx="3" ry="3" style="stroke:#038048;stroke-width:1.0;fill:none;"/><text fill="#000000" font-family="sans-serif" font-size="11" lengthAdjust="spacing" textLength="44" x="308.5" y="488.2549">rating: int</text><line style="stroke:#A80036;stroke-width:1.5;" x1="289.5" x2="382.5" y1="494.6719" y2="494.6719"/><!--MD5=[2a0772666bf0c233f633b3bf679c64c5]
class ISlave--><rect codeLine="17" fill="#FEFECE" filter="url(#fvw8zeq4azzdz)" height="61.8359" id="ISlave" style="stroke:#A80036;stroke-width:1.5;" width="252" x="210" y="287"/><ellipse cx="314.25" cy="303" fill="#B4A7E5" rx="11" ry="11" style="stroke:#A80036;stroke-width:1.0;"/><path d="M315.2031,299.6406 L315.2031,306.2969 L316.9219,306.2969 Q317.5313,306.2969 317.7969,306.5313 Q318.0625,306.7656 318.0625,307.1563 Q318.0625,307.5313 317.7969,307.7656 Q317.5313,308 316.9219,308 L311.7813,308 Q311.1719,308 310.9063,307.7656 Q310.6406,307.5313 310.6406,307.1406 Q310.6406,306.7656 310.9063,306.5313 Q311.1719,306.2969 311.7813,306.2969 L313.5,306.2969 L313.5,299.6406 L311.7813,299.6406 Q311.1719,299.6406 310.9063,299.4063 Q310.6406,299.1719 310.6406,298.7813 Q310.6406,298.4063 310.9063,298.1719 Q311.1719,297.9375 311.7813,297.9375 L316.9219,297.9375 Q317.5313,297.9375 317.7969,298.1719 Q318.0625,298.4063 318.0625,298.7813 Q318.0625,299.1719 317.7969,299.4063 Q317.5313,299.6406 316.9219,299.6406 L315.2031,299.6406 Z " fill="#000000"/><text fill="#000000" font-family="sans-serif" font-size="12" font-style="italic" lengthAdjust="spacing" textLength="35" x="334.75" y="307.9102">ISlave</text><line style="stroke:#A80036;stroke-width:1.5;" x1="211" x2="461" y1="319" y2="319"/><line style="stroke:#A80036;stroke-width:1.5;" x1="211" x2="461" y1="327" y2="327"/><ellipse cx="221" cy="338" fill="#84BE84" rx="3" ry="3" style="stroke:#038048;stroke-width:1.0;"/><text fill="#000000" font-family="sans-serif" font-size="11" lengthAdjust="spacing" textLength="226" x="230" y="342.4189">summarize(mail: Mail) : IObservable&lt;Summary&gt;</text><!--MD5=[a585ae041ea768c5019c282a2ce4d59f]
link NewsProvider to Mail--><path codeLine="22" d="M137,55.1 C137,76.28 137,108.01 137,132.77 " fill="none" id="NewsProvider-Mail" style="stroke:#A80036;stroke-width:1.0;"/><polygon fill="#000000" points="142,99.1758,144.9389,90.1307,139.0611,90.1307,142,99.1758" style="stroke:#000000;stroke-width:1.0;"/><text fill="#000000" font-family="sans-serif" font-size="13" lengthAdjust="spacing" textLength="57" x="151" y="99.4951">sends out</text><!--MD5=[796414c3af443726dceeb4ccbe5abdad]
link Mail to Client--><path codeLine="23" d="M125.15,209.34 C117.54,233.34 107.78,264.12 100.64,286.62 " fill="none" id="Mail-Client" style="stroke:#A80036;stroke-width:1.0;"/><polygon fill="#000000" points="122.5116,243.4097,116.9757,251.1431,122.5785,252.9201,122.5116,243.4097" style="stroke:#000000;stroke-width:1.0;"/><text fill="#000000" font-family="sans-serif" font-size="13" lengthAdjust="spacing" textLength="37" x="130" y="253.4951">shows</text><!--MD5=[9f14c61ccfce415dbd60dd19e3c2cac7]
link Mail to ISlave--><path codeLine="25" d="M184.67,206.73 C218.24,231.2 262.74,263.62 294.79,286.97 " fill="none" id="Mail-ISlave" style="stroke:#A80036;stroke-width:1.0;"/><polygon fill="#000000" points="249.959,245.2313,255.5385,252.9332,259,248.1827,249.959,245.2313" style="stroke:#000000;stroke-width:1.0;"/><text fill="#000000" font-family="sans-serif" font-size="13" lengthAdjust="spacing" textLength="47" x="263" y="253.4951">receives</text><!--MD5=[ab0901e76e5eb7ab6730289312a0c1f7]
link ISlave to Summary--><path codeLine="26" d="M336,349.04 C336,371.61 336,402.64 336,426.78 " fill="none" id="ISlave-Summary" style="stroke:#A80036;stroke-width:1.0;"/><polygon fill="#000000" points="341,393.1758,343.9389,384.1307,338.0611,384.1307,341,393.1758" style="stroke:#000000;stroke-width:1.0;"/><text fill="#000000" font-family="sans-serif" font-size="13" lengthAdjust="spacing" textLength="43" x="350" y="393.4951">creates</text><!--MD5=[bcf26ef57b5f1b20352e1c3fe6f77207]
@startuml Classes
class Client {
    +showContent(content: string)
}

class NewsProvider

class Mail {
    +content: string
    +ad: bool
}

class Summary {
    +content: string
    +rating: int
}

interface ISlave {
    +summarize(mail: Mail) : IObservable<Summary>
}


NewsProvider - - Mail : sends out >
Mail - - Client : < shows

Mail - - ISlave : < receives
ISlave - - Summary : > creates
@enduml

PlantUML version 1.2021.14(Fri Nov 12 17:46:50 CET 2021)
(GPL source distribution)
Java Runtime: Java(TM) SE Runtime Environment
JVM: Java HotSpot(TM) 64-Bit Server VM
Default Encoding: Cp1252
Language: de
Country: AT
--></g></svg>