<?xml version="1.0" encoding="UTF-8" standalone="no"?><svg xmlns="http://www.w3.org/2000/svg" xmlns:xlink="http://www.w3.org/1999/xlink" contentScriptType="application/ecmascript" contentStyleType="text/css" height="362px" preserveAspectRatio="none" style="width:189px;height:362px;background:#FFFFFF;" version="1.1" viewBox="0 0 189 362" width="189px" zoomAndPan="magnify"><defs><filter height="300%" id="ftkifo6n9gqhu" width="300%" x="-1" y="-1"><feGaussianBlur result="blurOut" stdDeviation="2.0"/><feColorMatrix in="blurOut" result="blurOut2" type="matrix" values="0 0 0 0 0 0 0 0 0 0 0 0 0 0 0 0 0 0 .4 0"/><feOffset dx="4.0" dy="4.0" in="blurOut2" result="blurOut3"/><feBlend in="SourceGraphic" in2="blurOut3" mode="normal"/></filter></defs><g><!--MD5=[ed6624c6556d5e7b1bd23032162d20b7]
class Client--><rect codeLine="1" fill="#FEFECE" filter="url(#ftkifo6n9gqhu)" height="61.8359" id="Client" style="stroke:#A80036;stroke-width:1.5;" width="168" x="7" y="287"/><ellipse cx="70.75" cy="303" fill="#ADD1B2" rx="11" ry="11" style="stroke:#A80036;stroke-width:1.0;"/><path d="M73.5156,298.875 Q73.6719,298.6563 73.8594,298.5469 Q74.0469,298.4375 74.2656,298.4375 Q74.6406,298.4375 74.875,298.6953 Q75.1094,298.9531 75.1094,299.5625 L75.1094,301.0156 Q75.1094,301.625 74.875,301.8906 Q74.6406,302.1563 74.2656,302.1563 Q73.9219,302.1563 73.7188,301.9531 Q73.5156,301.7656 73.4063,301.25 Q73.3594,300.8906 73.1719,300.7031 Q72.8438,300.3281 72.2344,300.1094 Q71.625,299.8906 71,299.8906 Q70.2344,299.8906 69.6016,300.2188 Q68.9688,300.5469 68.4766,301.2969 Q67.9844,302.0469 67.9844,303.0781 L67.9844,304.1719 Q67.9844,305.4063 68.875,306.2266 Q69.7656,307.0469 71.3594,307.0469 Q72.2969,307.0469 72.9531,306.7969 Q73.3438,306.6406 73.7656,306.2031 Q74.0313,305.9375 74.1797,305.8594 Q74.3281,305.7813 74.5313,305.7813 Q74.8594,305.7813 75.1172,306.0391 Q75.375,306.2969 75.375,306.6406 Q75.375,306.9844 75.0313,307.3906 Q74.5313,307.9688 73.7344,308.2969 Q72.6563,308.75 71.3594,308.75 Q69.8438,308.75 68.6406,308.125 Q67.6563,307.625 66.9688,306.5547 Q66.2813,305.4844 66.2813,304.2031 L66.2813,303.0469 Q66.2813,301.7188 66.8984,300.5703 Q67.5156,299.4219 68.6094,298.8047 Q69.7031,298.1875 70.9375,298.1875 Q71.6719,298.1875 72.3203,298.3516 Q72.9688,298.5156 73.5156,298.875 Z " fill="#000000"/><text fill="#000000" font-family="sans-serif" font-size="12" lengthAdjust="spacing" textLength="32" x="91.25" y="307.9102">Client</text><line style="stroke:#A80036;stroke-width:1.5;" x1="8" x2="174" y1="319" y2="319"/><line style="stroke:#A80036;stroke-width:1.5;" x1="8" x2="174" y1="327" y2="327"/><ellipse cx="18" cy="338" fill="#84BE84" rx="3" ry="3" style="stroke:#038048;stroke-width:1.0;"/><text fill="#000000" font-family="sans-serif" font-size="11" lengthAdjust="spacing" textLength="142" x="27" y="342.4189">showContent(content: string)</text><!--MD5=[5d722cbb235da0dbc7be1a11ebb02c02]
class NewsProvider--><rect codeLine="5" fill="#FEFECE" filter="url(#ftkifo6n9gqhu)" height="48" id="NewsProvider" style="stroke:#A80036;stroke-width:1.5;" width="109" x="36.5" y="7"/><ellipse cx="51.5" cy="23" fill="#ADD1B2" rx="11" ry="11" style="stroke:#A80036;stroke-width:1.0;"/><path d="M54.2656,18.875 Q54.4219,18.6563 54.6094,18.5469 Q54.7969,18.4375 55.0156,18.4375 Q55.3906,18.4375 55.625,18.6953 Q55.8594,18.9531 55.8594,19.5625 L55.8594,21.0156 Q55.8594,21.625 55.625,21.8906 Q55.3906,22.1563 55.0156,22.1563 Q54.6719,22.1563 54.4688,21.9531 Q54.2656,21.7656 54.1563,21.25 Q54.1094,20.8906 53.9219,20.7031 Q53.5938,20.3281 52.9844,20.1094 Q52.375,19.8906 51.75,19.8906 Q50.9844,19.8906 50.3516,20.2188 Q49.7188,20.5469 49.2266,21.2969 Q48.7344,22.0469 48.7344,23.0781 L48.7344,24.1719 Q48.7344,25.4063 49.625,26.2266 Q50.5156,27.0469 52.1094,27.0469 Q53.0469,27.0469 53.7031,26.7969 Q54.0938,26.6406 54.5156,26.2031 Q54.7813,25.9375 54.9297,25.8594 Q55.0781,25.7813 55.2813,25.7813 Q55.6094,25.7813 55.8672,26.0391 Q56.125,26.2969 56.125,26.6406 Q56.125,26.9844 55.7813,27.3906 Q55.2813,27.9688 54.4844,28.2969 Q53.4063,28.75 52.1094,28.75 Q50.5938,28.75 49.3906,28.125 Q48.4063,27.625 47.7188,26.5547 Q47.0313,25.4844 47.0313,24.2031 L47.0313,23.0469 Q47.0313,21.7188 47.6484,20.5703 Q48.2656,19.4219 49.3594,18.8047 Q50.4531,18.1875 51.6875,18.1875 Q52.4219,18.1875 53.0703,18.3516 Q53.7188,18.5156 54.2656,18.875 Z " fill="#000000"/><text fill="#000000" font-family="sans-serif" font-size="12" lengthAdjust="spacing" textLength="77" x="65.5" y="27.9102">NewsProvider</text><line style="stroke:#A80036;stroke-width:1.5;" x1="37.5" x2="144.5" y1="39" y2="39"/><line style="stroke:#A80036;stroke-width:1.5;" x1="37.5" x2="144.5" y1="47" y2="47"/><!--MD5=[93b867cf5e7a1e913dd5047074c12207]
class Mail--><rect codeLine="7" fill="#FEFECE" filter="url(#ftkifo6n9gqhu)" height="75.6719" id="Mail" style="stroke:#A80036;stroke-width:1.5;" width="95" x="43.5" y="133"/><ellipse cx="76.95" cy="149" fill="#ADD1B2" rx="11" ry="11" style="stroke:#A80036;stroke-width:1.0;"/><path d="M79.7156,144.875 Q79.8719,144.6563 80.0594,144.5469 Q80.2469,144.4375 80.4656,144.4375 Q80.8406,144.4375 81.075,144.6953 Q81.3094,144.9531 81.3094,145.5625 L81.3094,147.0156 Q81.3094,147.625 81.075,147.8906 Q80.8406,148.1563 80.4656,148.1563 Q80.1219,148.1563 79.9188,147.9531 Q79.7156,147.7656 79.6063,147.25 Q79.5594,146.8906 79.3719,146.7031 Q79.0438,146.3281 78.4344,146.1094 Q77.825,145.8906 77.2,145.8906 Q76.4344,145.8906 75.8016,146.2188 Q75.1688,146.5469 74.6766,147.2969 Q74.1844,148.0469 74.1844,149.0781 L74.1844,150.1719 Q74.1844,151.4063 75.075,152.2266 Q75.9656,153.0469 77.5594,153.0469 Q78.4969,153.0469 79.1531,152.7969 Q79.5438,152.6406 79.9656,152.2031 Q80.2313,151.9375 80.3797,151.8594 Q80.5281,151.7813 80.7313,151.7813 Q81.0594,151.7813 81.3172,152.0391 Q81.575,152.2969 81.575,152.6406 Q81.575,152.9844 81.2313,153.3906 Q80.7313,153.9688 79.9344,154.2969 Q78.8563,154.75 77.5594,154.75 Q76.0438,154.75 74.8406,154.125 Q73.8563,153.625 73.1688,152.5547 Q72.4813,151.4844 72.4813,150.2031 L72.4813,149.0469 Q72.4813,147.7188 73.0984,146.5703 Q73.7156,145.4219 74.8094,144.8047 Q75.9031,144.1875 77.1375,144.1875 Q77.8719,144.1875 78.5203,144.3516 Q79.1688,144.5156 79.7156,144.875 Z " fill="#000000"/><text fill="#000000" font-family="sans-serif" font-size="12" lengthAdjust="spacing" textLength="22" x="95.05" y="153.9102">Mail</text><line style="stroke:#A80036;stroke-width:1.5;" x1="44.5" x2="137.5" y1="165" y2="165"/><ellipse cx="54.5" cy="176" rx="3" ry="3" style="stroke:#038048;stroke-width:1.0;fill:none;"/><text fill="#000000" font-family="sans-serif" font-size="11" lengthAdjust="spacing" textLength="69" x="63.5" y="180.4189">content: string</text><ellipse cx="54.5" cy="189.8359" rx="3" ry="3" style="stroke:#038048;stroke-width:1.0;fill:none;"/><text fill="#000000" font-family="sans-serif" font-size="11" lengthAdjust="spacing" textLength="38" x="63.5" y="194.2549">ad: bool</text><line style="stroke:#A80036;stroke-width:1.5;" x1="44.5" x2="137.5" y1="200.6719" y2="200.6719"/><!--MD5=[a585ae041ea768c5019c282a2ce4d59f]
link NewsProvider to Mail--><path codeLine="12" d="M91,55.1 C91,76.28 91,108.01 91,132.77 " fill="none" id="NewsProvider-Mail" style="stroke:#A80036;stroke-width:1.0;"/><polygon fill="#000000" points="96,99.1758,98.9389,90.1307,93.0611,90.1307,96,99.1758" style="stroke:#000000;stroke-width:1.0;"/><text fill="#000000" font-family="sans-serif" font-size="13" lengthAdjust="spacing" textLength="57" x="105" y="99.4951">sends out</text><!--MD5=[796414c3af443726dceeb4ccbe5abdad]
link Mail to Client--><path codeLine="13" d="M91,209.34 C91,233.34 91,264.12 91,286.62 " fill="none" id="Mail-Client" style="stroke:#A80036;stroke-width:1.0;"/><polygon fill="#000000" points="96,243.1758,93.0611,252.2209,98.9389,252.2209,96,243.1758" style="stroke:#000000;stroke-width:1.0;"/><text fill="#000000" font-family="sans-serif" font-size="13" lengthAdjust="spacing" textLength="37" x="105" y="253.4951">shows</text><!--MD5=[65ea21ec750964c58a77bc4d7ad14975]
@startuml Classes
class Client {
    +showContent(content: string)
}

class NewsProvider

class Mail {
    +content: string
    +ad: bool
}

NewsProvider - - Mail : sends out >
Mail - - Client : < shows
@enduml

PlantUML version 1.2021.14(Fri Nov 12 17:46:50 CET 2021)
(GPL source distribution)
Java Runtime: Java(TM) SE Runtime Environment
JVM: Java HotSpot(TM) 64-Bit Server VM
Default Encoding: Cp1252
Language: de
Country: AT
--></g></svg>