<?xml version="1.0" encoding="UTF-8" standalone="no"?><svg xmlns="http://www.w3.org/2000/svg" xmlns:xlink="http://www.w3.org/1999/xlink" contentScriptType="application/ecmascript" contentStyleType="text/css" height="407px" preserveAspectRatio="none" style="width:401px;height:407px;background:#FFFFFF;" version="1.1" viewBox="0 0 401 407" width="401px" zoomAndPan="magnify"><defs><filter height="300%" id="f1b7z1un9lwucf" width="300%" x="-1" y="-1"><feGaussianBlur result="blurOut" stdDeviation="2.0"/><feColorMatrix in="blurOut" result="blurOut2" type="matrix" values="0 0 0 0 0 0 0 0 0 0 0 0 0 0 0 0 0 0 .4 0"/><feOffset dx="4.0" dy="4.0" in="blurOut2" result="blurOut3"/><feBlend in="SourceGraphic" in2="blurOut3" mode="normal"/></filter></defs><g><ellipse cx="77" cy="50.0957" fill="#000000" filter="url(#f1b7z1un9lwucf)" rx="10" ry="10" style="stroke:none;stroke-width:1.0;"/><rect fill="#FEFECE" filter="url(#f1b7z1un9lwucf)" height="35.0938" rx="12.5" ry="12.5" style="stroke:#A80036;stroke-width:1.5;" width="82" x="36" y="80.0957"/><text fill="#000000" font-family="sans-serif" font-size="12" lengthAdjust="spacing" textLength="62" x="46" y="102.5527">Create Mail</text><line style="stroke:#000000;stroke-width:2.0;" x1="15" x2="15" y1="12.4551" y2="390.6582"/><rect fill="#FAEBD7" height="378.2031" style="stroke:#FAEBD7;stroke-width:1.0;" width="125" x="143" y="12.4551"/><rect fill="#FEFECE" filter="url(#f1b7z1un9lwucf)" height="35.0938" rx="12.5" ry="12.5" style="stroke:#A80036;stroke-width:1.5;" width="89" x="159" y="135.1895"/><text fill="#000000" font-family="sans-serif" font-size="12" lengthAdjust="spacing" textLength="69" x="169" y="157.6465">Receive Mail</text><rect fill="#FEFECE" filter="url(#f1b7z1un9lwucf)" height="35.0938" rx="12.5" ry="12.5" style="stroke:#A80036;stroke-width:1.5;" width="109" x="149" y="190.2832"/><text fill="#000000" font-family="sans-serif" font-size="12" lengthAdjust="spacing" textLength="89" x="159" y="212.7402">Convert to string</text><rect fill="#FEFECE" filter="url(#f1b7z1un9lwucf)" height="35.0938" rx="12.5" ry="12.5" style="stroke:#A80036;stroke-width:1.5;" width="66" x="170.5" y="245.377"/><text fill="#000000" font-family="sans-serif" font-size="12" lengthAdjust="spacing" textLength="46" x="180.5" y="267.834">Pass on</text><line style="stroke:#000000;stroke-width:2.0;" x1="143" x2="143" y1="12.4551" y2="390.6582"/><rect fill="#FEFECE" filter="url(#f1b7z1un9lwucf)" height="35.0938" rx="12.5" ry="12.5" style="stroke:#A80036;stroke-width:1.5;" width="98" x="274" y="300.4707"/><text fill="#000000" font-family="sans-serif" font-size="12" lengthAdjust="spacing" textLength="78" x="284" y="322.9277">Receive string</text><rect fill="#FEFECE" filter="url(#f1b7z1un9lwucf)" height="35.0938" rx="12.5" ry="12.5" style="stroke:#A80036;stroke-width:1.5;" width="94" x="276" y="355.5645"/><text fill="#000000" font-family="sans-serif" font-size="12" lengthAdjust="spacing" textLength="74" x="286" y="378.0215">Show content</text><line style="stroke:#000000;stroke-width:2.0;" x1="268" x2="268" y1="12.4551" y2="390.6582"/><line style="stroke:#000000;stroke-width:2.0;" x1="382" x2="382" y1="12.4551" y2="390.6582"/><line style="stroke:#A80036;stroke-width:1.5;" x1="77" x2="77" y1="60.0957" y2="80.0957"/><polygon fill="#A80036" points="73,70.0957,77,80.0957,81,70.0957,77,74.0957" style="stroke:#A80036;stroke-width:1.0;"/><line style="stroke:#A80036;stroke-width:1.5;" x1="203.5" x2="203.5" y1="170.2832" y2="190.2832"/><polygon fill="#A80036" points="199.5,180.2832,203.5,190.2832,207.5,180.2832,203.5,184.2832" style="stroke:#A80036;stroke-width:1.0;"/><line style="stroke:#A80036;stroke-width:1.5;" x1="203.5" x2="203.5" y1="225.377" y2="245.377"/><polygon fill="#A80036" points="199.5,235.377,203.5,245.377,207.5,235.377,203.5,239.377" style="stroke:#A80036;stroke-width:1.0;"/><line style="stroke:#A80036;stroke-width:1.5;" x1="323" x2="323" y1="335.5645" y2="355.5645"/><polygon fill="#A80036" points="319,345.5645,323,355.5645,327,345.5645,323,349.5645" style="stroke:#A80036;stroke-width:1.0;"/><line style="stroke:#A80036;stroke-width:1.5;" x1="77" x2="77" y1="115.1895" y2="120.1895"/><line style="stroke:#A80036;stroke-width:1.5;" x1="77" x2="203.5" y1="120.1895" y2="120.1895"/><line style="stroke:#A80036;stroke-width:1.5;" x1="203.5" x2="203.5" y1="120.1895" y2="135.1895"/><polygon fill="#A80036" points="199.5,125.1895,203.5,135.1895,207.5,125.1895,203.5,129.1895" style="stroke:#A80036;stroke-width:1.0;"/><line style="stroke:#A80036;stroke-width:1.5;" x1="203.5" x2="203.5" y1="280.4707" y2="285.4707"/><line style="stroke:#A80036;stroke-width:1.5;" x1="203.5" x2="323" y1="285.4707" y2="285.4707"/><line style="stroke:#A80036;stroke-width:1.5;" x1="323" x2="323" y1="285.4707" y2="300.4707"/><polygon fill="#A80036" points="319,290.4707,323,300.4707,327,290.4707,323,294.4707" style="stroke:#A80036;stroke-width:1.0;"/><text fill="#000000" font-family="sans-serif" font-size="18" lengthAdjust="spacing" textLength="118" x="20" y="31.1406">News-Provider</text><text fill="#000000" font-family="sans-serif" font-size="18" lengthAdjust="spacing" textLength="50" x="180.5" y="31.1406">Select</text><text fill="#000000" font-family="sans-serif" font-size="18" lengthAdjust="spacing" textLength="46" x="302" y="31.1406">Client</text><!--MD5=[9b60ac27e9efa2c276ca068b7e84bc6f]
@startuml Select
|News-Provider|
start
:Create Mail;
|#AntiqueWhite|Select|
:Receive Mail;
:Convert to string;
:Pass on;
|Client|
:Receive string;
:Show content;
@enduml

PlantUML version 1.2021.14(Fri Nov 12 17:46:50 CET 2021)
(GPL source distribution)
Java Runtime: Java(TM) SE Runtime Environment
JVM: Java HotSpot(TM) 64-Bit Server VM
Default Encoding: Cp1252
Language: de
Country: AT
--></g></svg>