<?xml version="1.0" encoding="UTF-8" standalone="no"?><svg xmlns="http://www.w3.org/2000/svg" xmlns:xlink="http://www.w3.org/1999/xlink" contentScriptType="application/ecmascript" contentStyleType="text/css" height="839px" preserveAspectRatio="none" style="width:707px;height:839px;background:#FFFFFF;" version="1.1" viewBox="0 0 707 839" width="707px" zoomAndPan="magnify"><defs><filter height="300%" id="f16zj7hbdpqsrd" width="300%" x="-1" y="-1"><feGaussianBlur result="blurOut" stdDeviation="2.0"/><feColorMatrix in="blurOut" result="blurOut2" type="matrix" values="0 0 0 0 0 0 0 0 0 0 0 0 0 0 0 0 0 0 .4 0"/><feOffset dx="4.0" dy="4.0" in="blurOut2" result="blurOut3"/><feBlend in="SourceGraphic" in2="blurOut3" mode="normal"/></filter></defs><g><ellipse cx="77" cy="50.0957" fill="#000000" filter="url(#f16zj7hbdpqsrd)" rx="10" ry="10" style="stroke:none;stroke-width:1.0;"/><rect fill="#FEFECE" filter="url(#f16zj7hbdpqsrd)" height="35.0938" rx="12.5" ry="12.5" style="stroke:#A80036;stroke-width:1.5;" width="82" x="36" y="80.0957"/><text fill="#000000" font-family="sans-serif" font-size="12" lengthAdjust="spacing" textLength="62" x="46" y="102.5527">Create Mail</text><line style="stroke:#000000;stroke-width:2.0;" x1="15" x2="15" y1="12.4551" y2="822.1387"/><rect fill="#FEFECE" filter="url(#f16zj7hbdpqsrd)" height="35.0938" rx="12.5" ry="12.5" style="stroke:#A80036;stroke-width:1.5;" width="89" x="149" y="135.1895"/><text fill="#000000" font-family="sans-serif" font-size="12" lengthAdjust="spacing" textLength="69" x="159" y="157.6465">Receive Mail</text><rect fill="#FEFECE" filter="url(#f16zj7hbdpqsrd)" height="35.0938" rx="12.5" ry="12.5" style="stroke:#A80036;stroke-width:1.5;" width="66" x="160.5" y="239.2012"/><text fill="#000000" font-family="sans-serif" font-size="12" lengthAdjust="spacing" textLength="46" x="170.5" y="261.6582">Pass on</text><polygon fill="#FEFECE" filter="url(#f16zj7hbdpqsrd)" points="178,190.2832,209,190.2832,221,202.2832,209,214.2832,178,214.2832,166,202.2832,178,190.2832" style="stroke:#A80036;stroke-width:1.5;"/><text fill="#000000" font-family="sans-serif" font-size="11" lengthAdjust="spacing" textLength="12" x="197.5" y="225.7021">no</text><text fill="#000000" font-family="sans-serif" font-size="11" lengthAdjust="spacing" textLength="31" x="178" y="206.7842">Is Ad?</text><text fill="#000000" font-family="sans-serif" font-size="11" lengthAdjust="spacing" textLength="18" x="221" y="199.8662">yes</text><ellipse cx="261" cy="202.2832" fill="#FFFFFF" filter="url(#f16zj7hbdpqsrd)" rx="11" ry="11" style="stroke:#000000;stroke-width:1.0;"/><ellipse cx="261" cy="202.2832" fill="#000000" rx="6" ry="6" style="stroke:#7F7F7F;stroke-width:1.0;"/><line style="stroke:#000000;stroke-width:2.0;" x1="143" x2="143" y1="12.4551" y2="822.1387"/><rect fill="#FAEBD7" height="809.6836" style="stroke:#FAEBD7;stroke-width:1.0;" width="156" x="282" y="12.4551"/><rect fill="#FEFECE" filter="url(#f16zj7hbdpqsrd)" height="35.0938" rx="12.5" ry="12.5" style="stroke:#A80036;stroke-width:1.5;" width="89" x="313.5" y="294.2949"/><text fill="#000000" font-family="sans-serif" font-size="12" lengthAdjust="spacing" textLength="69" x="323.5" y="316.752">Receive Mail</text><rect fill="#FEFECE" filter="url(#f16zj7hbdpqsrd)" height="35.0938" rx="12.5" ry="12.5" style="stroke:#A80036;stroke-width:1.5;" width="120" x="298" y="349.3887"/><text fill="#000000" font-family="sans-serif" font-size="12" lengthAdjust="spacing" textLength="100" x="308" y="371.8457">Send Mail to Slave</text><rect fill="#000000" filter="url(#f16zj7hbdpqsrd)" height="6" rx="2.5" ry="2.5" style="stroke:#000000;stroke-width:1.0;" width="140" x="288" y="404.4824"/><rect fill="#FEFECE" filter="url(#f16zj7hbdpqsrd)" height="35.0938" rx="12.5" ry="12.5" style="stroke:#A80036;stroke-width:1.5;" width="112" x="302" y="430.4824"/><text fill="#000000" font-family="sans-serif" font-size="12" lengthAdjust="spacing" textLength="92" x="312" y="452.9395">Create summary</text><rect fill="#000000" filter="url(#f16zj7hbdpqsrd)" height="6" rx="2.5" ry="2.5" style="stroke:#000000;stroke-width:1.0;" width="140" x="288" y="485.5762"/><rect fill="#FEFECE" filter="url(#f16zj7hbdpqsrd)" height="35.0938" rx="12.5" ry="12.5" style="stroke:#A80036;stroke-width:1.5;" width="66" x="325" y="511.5762"/><text fill="#000000" font-family="sans-serif" font-size="12" lengthAdjust="spacing" textLength="46" x="335" y="534.0332">Pass on</text><line style="stroke:#000000;stroke-width:2.0;" x1="282" x2="282" y1="12.4551" y2="822.1387"/><rect fill="#FEFECE" filter="url(#f16zj7hbdpqsrd)" height="35.0938" rx="12.5" ry="12.5" style="stroke:#A80036;stroke-width:1.5;" width="120" x="444" y="566.6699"/><text fill="#000000" font-family="sans-serif" font-size="12" lengthAdjust="spacing" textLength="100" x="454" y="589.127">Receive Summary</text><rect fill="#FEFECE" filter="url(#f16zj7hbdpqsrd)" height="35.0938" rx="12.5" ry="12.5" style="stroke:#A80036;stroke-width:1.5;" width="109" x="449.5" y="621.7637"/><text fill="#000000" font-family="sans-serif" font-size="12" lengthAdjust="spacing" textLength="89" x="459.5" y="644.2207">Convert to string</text><rect fill="#FEFECE" filter="url(#f16zj7hbdpqsrd)" height="35.0938" rx="12.5" ry="12.5" style="stroke:#A80036;stroke-width:1.5;" width="66" x="471" y="676.8574"/><text fill="#000000" font-family="sans-serif" font-size="12" lengthAdjust="spacing" textLength="46" x="481" y="699.3145">Pass on</text><line style="stroke:#000000;stroke-width:2.0;" x1="438" x2="438" y1="12.4551" y2="822.1387"/><rect fill="#FEFECE" filter="url(#f16zj7hbdpqsrd)" height="35.0938" rx="12.5" ry="12.5" style="stroke:#A80036;stroke-width:1.5;" width="98" x="580" y="731.9512"/><text fill="#000000" font-family="sans-serif" font-size="12" lengthAdjust="spacing" textLength="78" x="590" y="754.4082">Receive string</text><rect fill="#FEFECE" filter="url(#f16zj7hbdpqsrd)" height="35.0938" rx="12.5" ry="12.5" style="stroke:#A80036;stroke-width:1.5;" width="94" x="582" y="787.0449"/><text fill="#000000" font-family="sans-serif" font-size="12" lengthAdjust="spacing" textLength="74" x="592" y="809.502">Show content</text><line style="stroke:#000000;stroke-width:2.0;" x1="574" x2="574" y1="12.4551" y2="822.1387"/><line style="stroke:#000000;stroke-width:2.0;" x1="688" x2="688" y1="12.4551" y2="822.1387"/><line style="stroke:#A80036;stroke-width:1.5;" x1="77" x2="77" y1="60.0957" y2="80.0957"/><polygon fill="#A80036" points="73,70.0957,77,80.0957,81,70.0957,77,74.0957" style="stroke:#A80036;stroke-width:1.0;"/><line style="stroke:#A80036;stroke-width:1.5;" x1="193.5" x2="193.5" y1="214.2832" y2="239.2012"/><polygon fill="#A80036" points="189.5,229.2012,193.5,239.2012,197.5,229.2012,193.5,233.2012" style="stroke:#A80036;stroke-width:1.0;"/><line style="stroke:#A80036;stroke-width:1.5;" x1="221" x2="250" y1="202.2832" y2="202.2832"/><polygon fill="#A80036" points="240,198.2832,250,202.2832,240,206.2832,244,202.2832" style="stroke:#A80036;stroke-width:1.0;"/><line style="stroke:#A80036;stroke-width:1.5;" x1="193.5" x2="193.5" y1="274.2949" y2="279.2949"/><line style="stroke:#A80036;stroke-width:1.5;" x1="193.5" x2="358" y1="279.2949" y2="279.2949"/><line style="stroke:#A80036;stroke-width:1.5;" x1="358" x2="358" y1="279.2949" y2="294.2949"/><polygon fill="#A80036" points="354,284.2949,358,294.2949,362,284.2949,358,288.2949" style="stroke:#A80036;stroke-width:1.0;"/><line style="stroke:#A80036;stroke-width:1.5;" x1="193.5" x2="193.5" y1="170.2832" y2="190.2832"/><polygon fill="#A80036" points="189.5,180.2832,193.5,190.2832,197.5,180.2832,193.5,184.2832" style="stroke:#A80036;stroke-width:1.0;"/><line style="stroke:#A80036;stroke-width:1.5;" x1="358" x2="358" y1="329.3887" y2="349.3887"/><polygon fill="#A80036" points="354,339.3887,358,349.3887,362,339.3887,358,343.3887" style="stroke:#A80036;stroke-width:1.0;"/><line style="stroke:#A80036;stroke-width:1.5;" x1="358" x2="358" y1="410.4824" y2="430.4824"/><polygon fill="#A80036" points="354,420.4824,358,430.4824,362,420.4824,358,424.4824" style="stroke:#A80036;stroke-width:1.0;"/><line style="stroke:#A80036;stroke-width:1.5;" x1="358" x2="358" y1="465.5762" y2="485.5762"/><polygon fill="#A80036" points="354,475.5762,358,485.5762,362,475.5762,358,479.5762" style="stroke:#A80036;stroke-width:1.0;"/><line style="stroke:#A80036;stroke-width:1.5;" x1="358" x2="358" y1="384.4824" y2="404.4824"/><polygon fill="#A80036" points="354,394.4824,358,404.4824,362,394.4824,358,398.4824" style="stroke:#A80036;stroke-width:1.0;"/><line style="stroke:#A80036;stroke-width:1.5;" x1="358" x2="358" y1="491.5762" y2="511.5762"/><polygon fill="#A80036" points="354,501.5762,358,511.5762,362,501.5762,358,505.5762" style="stroke:#A80036;stroke-width:1.0;"/><line style="stroke:#A80036;stroke-width:1.5;" x1="504" x2="504" y1="601.7637" y2="621.7637"/><polygon fill="#A80036" points="500,611.7637,504,621.7637,508,611.7637,504,615.7637" style="stroke:#A80036;stroke-width:1.0;"/><line style="stroke:#A80036;stroke-width:1.5;" x1="504" x2="504" y1="656.8574" y2="676.8574"/><polygon fill="#A80036" points="500,666.8574,504,676.8574,508,666.8574,504,670.8574" style="stroke:#A80036;stroke-width:1.0;"/><line style="stroke:#A80036;stroke-width:1.5;" x1="629" x2="629" y1="767.0449" y2="787.0449"/><polygon fill="#A80036" points="625,777.0449,629,787.0449,633,777.0449,629,781.0449" style="stroke:#A80036;stroke-width:1.0;"/><line style="stroke:#A80036;stroke-width:1.5;" x1="77" x2="77" y1="115.1895" y2="120.1895"/><line style="stroke:#A80036;stroke-width:1.5;" x1="77" x2="193.5" y1="120.1895" y2="120.1895"/><line style="stroke:#A80036;stroke-width:1.5;" x1="193.5" x2="193.5" y1="120.1895" y2="135.1895"/><polygon fill="#A80036" points="189.5,125.1895,193.5,135.1895,197.5,125.1895,193.5,129.1895" style="stroke:#A80036;stroke-width:1.0;"/><line style="stroke:#A80036;stroke-width:1.5;" x1="358" x2="358" y1="546.6699" y2="551.6699"/><line style="stroke:#A80036;stroke-width:1.5;" x1="358" x2="504" y1="551.6699" y2="551.6699"/><line style="stroke:#A80036;stroke-width:1.5;" x1="504" x2="504" y1="551.6699" y2="566.6699"/><polygon fill="#A80036" points="500,556.6699,504,566.6699,508,556.6699,504,560.6699" style="stroke:#A80036;stroke-width:1.0;"/><line style="stroke:#A80036;stroke-width:1.5;" x1="504" x2="504" y1="711.9512" y2="716.9512"/><line style="stroke:#A80036;stroke-width:1.5;" x1="504" x2="629" y1="716.9512" y2="716.9512"/><line style="stroke:#A80036;stroke-width:1.5;" x1="629" x2="629" y1="716.9512" y2="731.9512"/><polygon fill="#A80036" points="625,721.9512,629,731.9512,633,721.9512,629,725.9512" style="stroke:#A80036;stroke-width:1.0;"/><text fill="#000000" font-family="sans-serif" font-size="18" lengthAdjust="spacing" textLength="118" x="20" y="31.1406">News-Provider</text><text fill="#000000" font-family="sans-serif" font-size="18" lengthAdjust="spacing" textLength="53" x="186" y="31.1406">Where</text><text fill="#000000" font-family="sans-serif" font-size="18" lengthAdjust="spacing" textLength="94" x="313" y="31.1406">SelectMany</text><text fill="#000000" font-family="sans-serif" font-size="18" lengthAdjust="spacing" textLength="50" x="481" y="31.1406">Select</text><text fill="#000000" font-family="sans-serif" font-size="18" lengthAdjust="spacing" textLength="46" x="608" y="31.1406">Client</text><!--MD5=[736f9342b0a96b8610387e34a7124cc6]
@startuml SelectMany
|News-Provider|
start
:Create Mail;
|Where|
:Receive Mail;
if (Is Ad?) then (yes)
    stop
else (no)
    :Pass on;
endif
|#AntiqueWhite|SelectMany|
:Receive Mail;
:Send Mail to Slave;
fork
:Create summary;
end fork
:Pass on;
|Select|
:Receive Summary;
:Convert to string;
:Pass on;
|Client|
:Receive string;
:Show content;
@enduml

PlantUML version 1.2021.14(Fri Nov 12 17:46:50 CET 2021)
(GPL source distribution)
Java Runtime: Java(TM) SE Runtime Environment
JVM: Java HotSpot(TM) 64-Bit Server VM
Default Encoding: Cp1252
Language: de
Country: AT
--></g></svg>